<svg width="68" height="68" viewBox="0 0 68 68" fill="none" xmlns="http://www.w3.org/2000/svg">
<path opacity="0.1" d="M49.1111 0H18.8889C8.45684 0 0 8.45684 0 18.8889V49.1111C0 59.5432 8.45684 68 18.8889 68H49.1111C59.5432 68 68 59.5432 68 49.1111V18.8889C68 8.45684 59.5432 0 49.1111 0Z" fill="#62335F"/>
<g clip-path="url(#clip0_148_1854)">
<path d="M49.6705 20.9592C52.0236 21.0029 54.1705 23.0045 54.2892 25.4107C54.2924 25.4686 54.2939 25.5264 54.2955 25.5842C54.3345 31.8498 54.2955 38.1154 54.2955 44.3811C54.2814 46.7436 52.3002 48.9326 49.8439 49.0545C49.7861 49.0576 49.7283 49.0592 49.6705 49.0592C39.2408 49.1248 28.8127 49.0607 18.383 49.0607C16.0158 49.0451 13.833 47.0654 13.7111 44.6092C13.708 44.5514 13.7064 44.4936 13.7049 44.4342C13.6658 38.1686 13.7049 31.9029 13.7049 25.6373C13.7189 23.2764 15.7002 21.0857 18.1564 20.9639C18.2142 20.9623 18.272 20.9607 18.3299 20.9592C28.7767 20.8951 39.2236 20.8951 49.6705 20.9592ZM18.3924 24.0811C17.5799 24.0857 16.8424 24.7795 16.8267 25.6232C16.7877 31.8811 16.7877 38.1389 16.8267 44.3967C16.8424 45.1998 17.5252 45.9217 18.3689 45.9373C28.7892 46.0029 39.2111 46.0029 49.6314 45.9373C50.4377 45.9232 51.158 45.2264 51.1736 44.3967C51.2127 38.1389 51.2127 31.8811 51.1736 25.6232C51.158 24.8201 50.4752 24.0967 49.6314 24.0811C39.2189 24.017 28.8064 24.0811 18.3924 24.0811ZM46.5892 27.2061C47.0392 27.2529 47.1674 27.3326 47.3877 27.4873C48.1174 28.0014 48.2533 29.1889 47.6095 29.8514C47.5345 29.9295 47.5111 29.9451 47.4267 30.0139L34.9361 39.3811C34.3783 39.767 33.6314 39.7748 33.0627 39.3811L20.5736 30.0139C20.2642 29.7607 20.208 29.6545 20.1095 29.4529C19.6845 28.5873 20.272 27.3654 21.2892 27.2201C21.6939 27.1623 22.108 27.2811 22.447 27.5154L34.0002 36.1811L45.5533 27.5154C45.5533 27.5154 46.072 27.1951 46.5892 27.2061Z" fill="#4D4D4D"/>
</g>
<defs>
<clipPath id="clip0_148_1854">
<rect width="50" height="50" fill="white" transform="translate(9 10)"/>
</clipPath>
</defs>
</svg>
