<svg width="24" height="24" viewBox="0 0 24 24" fill="none" xmlns="http://www.w3.org/2000/svg">
<path d="M21.146 8.57618L13.596 2.44118C12.671 1.69018 11.329 1.69018 10.404 2.44118L2.85496 8.57518C2.58996 8.79018 2.43896 9.10818 2.43896 9.44818V20.9912C2.43896 21.6112 2.94396 22.1212 3.56396 22.1212H8.62597C9.24597 22.1212 9.75097 21.6112 9.75097 20.9912V13.6852H14.25V20.9912C14.25 21.6112 14.755 22.1212 15.375 22.1212H20.437C21.057 22.1212 21.562 21.6112 21.562 20.9912V9.44818C21.561 9.10818 21.41 8.79018 21.146 8.57618ZM20.436 20.9972H15.374V13.6802C15.374 13.0602 14.869 12.5612 14.249 12.5612H9.74996C9.12996 12.5612 8.62496 13.0602 8.62496 13.6802V20.9972H3.56396V9.44818L11.114 3.31418C11.627 2.89618 12.374 2.89718 12.887 3.31418L20.437 9.44818V20.9972H20.436Z" fill="#666666" stroke="#666666" stroke-width="0.3"/>
</svg>
