<svg width="20" height="20" viewBox="0 0 20 20" fill="none" xmlns="http://www.w3.org/2000/svg">
<g clip-path="url(#clip0_205_2055)">
<path d="M9.99996 19.9998C12.1043 19.9977 14.1439 19.2717 15.7762 17.9436C17.4086 16.6156 18.5343 14.7663 18.9643 12.7063C19.3943 10.6464 19.1025 8.5012 18.1378 6.63098C17.1732 4.76075 15.5944 3.27938 13.6666 2.4356C13.5662 2.39115 13.458 2.36697 13.3482 2.36447C13.2385 2.36197 13.1293 2.38119 13.027 2.42103C12.9246 2.46086 12.8312 2.52052 12.752 2.59659C12.6728 2.67265 12.6094 2.76362 12.5655 2.86425C12.5216 2.96489 12.498 3.07322 12.4961 3.183C12.4941 3.29279 12.5139 3.40188 12.5543 3.50399C12.5947 3.6061 12.6548 3.69923 12.7313 3.77802C12.8078 3.85681 12.8991 3.91971 13 3.9631C14.5792 4.65232 15.8729 5.86428 16.6636 7.39519C17.4543 8.92609 17.6938 10.6826 17.3418 12.3693C16.9897 14.056 16.0676 15.57 14.7306 16.6569C13.3935 17.7437 11.723 18.337 9.99996 18.337C8.2769 18.337 6.6064 17.7437 5.26933 16.6569C3.93227 15.57 3.01019 14.056 2.65816 12.3693C2.30612 10.6826 2.54559 8.92609 3.33631 7.39519C4.12702 5.86428 5.42075 4.65232 6.99995 3.9631C7.10082 3.91971 7.19212 3.85681 7.2686 3.77802C7.34508 3.69923 7.40523 3.6061 7.44561 3.50399C7.48598 3.40188 7.50577 3.29279 7.50385 3.183C7.50193 3.07322 7.47833 2.96489 7.43441 2.86425C7.39048 2.76362 7.32711 2.67265 7.24791 2.59659C7.16872 2.52052 7.07528 2.46086 6.97296 2.42103C6.87063 2.38119 6.76144 2.36197 6.65167 2.36447C6.54189 2.36697 6.43369 2.39115 6.33329 2.4356C4.4055 3.27938 2.82673 4.76075 1.86207 6.63098C0.897402 8.5012 0.605586 10.6464 1.03562 12.7063C1.46565 14.7663 2.59134 16.6156 4.22368 17.9436C5.85602 19.2717 7.8956 19.9977 9.99996 19.9998Z" fill="#666666" stroke="#666666" stroke-width="0.2"/>
<path d="M9.99996 8.33333C10.221 8.33333 10.4329 8.24554 10.5892 8.08926C10.7455 7.93297 10.8333 7.72101 10.8333 7.5V0.833333C10.8333 0.61232 10.7455 0.400358 10.5892 0.244078C10.4329 0.0877974 10.221 0 9.99996 0C9.77895 0 9.56698 0.0877974 9.4107 0.244078C9.25442 0.400358 9.16663 0.61232 9.16663 0.833333V7.5C9.16663 7.72101 9.25442 7.93297 9.4107 8.08926C9.56698 8.24554 9.77895 8.33333 9.99996 8.33333Z" fill="#666666" stroke="#666666" stroke-width="0.2"/>
</g>
<defs>
<clipPath id="clip0_205_2055">
<rect width="20" height="20" fill="white"/>
</clipPath>
</defs>
</svg>
