<svg width="16" height="16" viewBox="0 0 16 16" fill="none" xmlns="http://www.w3.org/2000/svg">
<path d="M15.6525 7.28234C15.9674 6.97542 16.0786 6.52496 15.9427 6.10621C15.8066 5.68747 15.4519 5.38855 15.0162 5.32512L11.1421 4.7622C10.9771 4.73817 10.8345 4.63469 10.7608 4.48507L9.02884 0.974937C8.83437 0.580543 8.43965 0.335449 7.99977 0.335449C7.5602 0.335449 7.16548 0.580543 6.97101 0.974937L5.23869 4.48539C5.165 4.63501 5.02211 4.73849 4.85711 4.76252L0.983026 5.32544C0.547623 5.38855 0.192637 5.68779 0.0564737 6.10653C-0.0793693 6.52528 0.0318041 6.97574 0.346742 7.28267L3.14979 10.0149C3.26929 10.1315 3.32407 10.2994 3.29588 10.4634L2.63461 14.3215C2.57598 14.6611 2.66504 14.9914 2.88483 15.2519C3.22636 15.6578 3.82259 15.7815 4.29933 15.531L7.76396 13.7093C7.90878 13.6333 8.09107 13.634 8.23557 13.7093L11.7005 15.531C11.869 15.6197 12.0488 15.6646 12.2343 15.6646C12.5729 15.6646 12.894 15.514 13.1147 15.2519C13.3348 14.9914 13.4236 14.6605 13.3649 14.3215L12.7033 10.4634C12.6751 10.2991 12.7299 10.1315 12.8494 10.0149L15.6525 7.28234Z" fill="#FFCC80"/>
</svg>
