<svg width="20" height="20" viewBox="0 0 20 20" fill="none" xmlns="http://www.w3.org/2000/svg">
<g clip-path="url(#clip0_205_2039)">
<path d="M10.04 4.54004C8.44 4.54004 7.12 5.84004 7.12 7.46004C7.12 7.88004 7.46 8.20004 7.86 8.20004C8.26 8.20004 8.6 7.86004 8.6 7.46004C8.6 6.68004 9.23999 6.04004 10.02 6.04004C10.84 6.04004 11.44 6.62004 11.44 7.40004C11.44 7.40004 11.44 7.42004 11.44 7.46004C11.44 7.90004 11.32 8.94004 9.9 9.16004C9.54 9.22004 9.25999 9.52004 9.25999 9.90004V11.92C9.25999 12.34 9.6 12.66 9.99999 12.66C10.4 12.66 10.74 12.32 10.74 11.92V10.5C12.62 9.92004 12.92 8.30004 12.92 7.40004C12.96 5.80004 11.64 4.54004 10.04 4.54004Z" fill="#666666" stroke="#666666" stroke-width="0.1"/>
<path d="M10.04 13.5601C9.49996 13.5601 9.07996 14.0001 9.07996 14.5201C9.07996 15.0401 9.51996 15.4801 10.04 15.4801C10.56 15.4801 11 15.0401 11 14.5201C11 14.0001 10.56 13.5601 10.04 13.5601Z" fill="#666666" stroke="#666666" stroke-width="0.1"/>
<path d="M10.04 0.160156C4.66003 0.160156 0.280029 4.54016 0.280029 9.92016C0.280029 15.3002 4.66003 19.6802 10.04 19.6802C15.42 19.6802 19.8 15.3002 19.8 9.92016C19.8 4.54016 15.42 0.160156 10.04 0.160156ZM10.04 18.2002C5.48003 18.2002 1.76003 14.4802 1.76003 9.92016C1.76003 5.36016 5.48003 1.64016 10.04 1.64016C14.6 1.64016 18.32 5.36016 18.32 9.92016C18.3 14.4802 14.6 18.2002 10.04 18.2002Z" fill="#666666" stroke="#666666" stroke-width="0.1"/>
</g>
<defs>
<clipPath id="clip0_205_2039">
<rect width="20" height="20" fill="white"/>
</clipPath>
</defs>
</svg>
